<?xml version="1.0" encoding="utf-8"?>
<!-- Generator: Adobe Illustrator 24.2.0, SVG Export Plug-In . SVG Version: 6.00 Build 0)  -->
<svg version="1.1" id="레이어_1" xmlns="http://www.w3.org/2000/svg" xmlns:xlink="http://www.w3.org/1999/xlink" x="0px"
	 y="0px" viewBox="0 0 600 123.8" style="enable-background:new 0 0 600 123.8;" xml:space="preserve">
<style type="text/css">
	.st0{fill:#040000;}
	.st1{fill:#675698;}
</style>
<g>
	<polygon class="st0" points="492.2,11.6 525.5,11.6 525.5,123.8 566.7,123.8 566.7,11.6 600,11.6 600,0.3 492.2,0.3 	"/>
	<g>
		<path class="st0" d="M306.1,4c-6.3-2.4-13.2-3.7-20.3-3.7c-7.4,0-14.4,1.4-20.9,4c-22.4,8.8-38.4,31.2-38.4,57.6l-0.1,8.4
			c2.8,23,18,42.1,38.5,49.8c6.3,2.4,13.2,3.7,20.3,3.7c7.4,0,14.4-1.4,20.9-4c22.4-8.8,38.4-31.2,38.4-57.6l0.1-8.4
			C341.7,30.8,326.5,11.7,306.1,4z M294.3,78.9h-17.8V45.1h17.8V78.9z"/>
	</g>
	<g>
		<path class="st1" d="M77.4,0.3v78.6H41.3V0.3H0.6L0,62.4c0,33.8,26.6,61.4,59.3,61.4s59.3-27.5,59.3-61.5l0.6-62H77.4z"/>
	</g>
	<polygon class="st0" points="460.1,0 439.4,0 439.4,61.7 359.3,0 359.3,123.8 379.8,123.8 379.8,68.7 439,123.5 480.6,123.8 
		480.6,116.9 480.6,0 	"/>
	<polygon class="st0" points="132.6,0 132.6,123.8 174.5,123.8 174.5,64.6 211.6,64.6 211.6,64.5 211.6,57.6 211.6,51.8 174.5,51.8 
		174.5,12.7 211.6,12.7 211.6,6.9 211.6,0 	"/>
</g>
</svg>
